<?xml version="1.0" encoding="utf-8"?>
<!-- Generator: Adobe Illustrator 21.0.0, SVG Export Plug-In . SVG Version: 6.00 Build 0)  -->
<svg version="1.1" id="Layer_1" xmlns="http://www.w3.org/2000/svg" xmlns:xlink="http://www.w3.org/1999/xlink" x="0px" y="0px"
	 viewBox="0 0 72 72" style="enable-background:new 0 0 72 72;" xml:space="preserve">
<style type="text/css">
	.st0{display:none;}
	.st1{display:inline;fill:none;stroke:#B79748;stroke-width:3;stroke-miterlimit:10;}
	.st2{display:none;fill:none;stroke:#B2954D;stroke-width:3;stroke-miterlimit:10;}
	.st3{display:none;fill:none;stroke:#BAA267;stroke-width:3;stroke-miterlimit:10;}
	.st4{fill:none;stroke:#FFFFFF;stroke-width:4;stroke-miterlimit:10;}
	.st5{display:inline;}
	.st6{display:inline;fill:#FFFFFF;}
</style>
<g class="st0">
	<polygon class="st1" points="35.8,3.8 7.7,56.6 64,56.6 	"/>
</g>
<rect x="10.9" y="12.2" class="st2" width="50" height="50"/>
<circle class="st3" cx="35.8" cy="37.1" r="29.3"/>
<g>
	<polygon class="st4" points="36.1,53.8 16.9,63.9 20.8,42.8 5,28 26.5,24.5 36.1,5.4 45.2,24.5 66.7,28 51.4,42.8 54.7,63.9 	"/>
</g>
<g class="st0">
	<g class="st5">
		<polygon class="st4" points="23.1,33.2 11.9,39.1 14.2,26.7 4.9,18.1 17.5,16.1 23.1,4.9 28.5,16.1 41.1,18.1 32.1,26.7 
			34.1,39.1 		"/>
	</g>
	<g class="st5">
		<polygon class="st4" points="49.1,61.4 37.8,67.3 40.1,54.9 30.8,46.2 43.4,44.3 49.1,33 54.4,44.3 67,46.2 58,54.9 60,67.3 		"/>
	</g>
</g>
<g class="st0">
	<path class="st6" d="M33.3,36.5c0,7.1-1.1,12.3-3.3,15.8s-5.6,5.2-10.2,5.2c-4.4,0-7.8-1.8-10-5.4s-3.4-8.8-3.4-15.7
		c0-7.1,1.1-12.4,3.3-15.9s5.6-5.2,10.2-5.2c4.4,0,7.8,1.8,10.1,5.4S33.3,29.6,33.3,36.5z M10.9,36.5c0,6,0.7,10.3,2.1,13
		c1.4,2.7,3.6,4.1,6.7,4.1c3.1,0,5.3-1.4,6.7-4.1c1.4-2.8,2.1-7.1,2.1-12.9s-0.7-10.2-2.1-12.9c-1.4-2.7-3.6-4.1-6.7-4.1
		c-3.1,0-5.3,1.3-6.7,4S10.9,30.5,10.9,36.5z"/>
	<path class="st6" d="M67.8,47.6h-6.1V57h-4.4v-9.4H37.3v-4.1l19.4-27.7h4.9v27.5h6.1V47.6z M57.2,43.4V29.8c0-2.7,0.1-5.7,0.3-9
		h-0.2c-0.9,1.8-1.7,3.3-2.5,4.4L42,43.4H57.2z"/>
</g>
<g class="st0">
	<path class="st6" d="M33.3,36.5c0,7.1-1.1,12.3-3.3,15.8s-5.6,5.2-10.2,5.2c-4.4,0-7.8-1.8-10-5.4s-3.4-8.8-3.4-15.7
		c0-7.1,1.1-12.4,3.3-15.9s5.6-5.2,10.2-5.2c4.4,0,7.8,1.8,10.1,5.4S33.3,29.6,33.3,36.5z M10.9,36.5c0,6,0.7,10.3,2.1,13
		c1.4,2.7,3.6,4.1,6.7,4.1c3.1,0,5.3-1.4,6.7-4.1c1.4-2.8,2.1-7.1,2.1-12.9s-0.7-10.2-2.1-12.9c-1.4-2.7-3.6-4.1-6.7-4.1
		c-3.1,0-5.3,1.3-6.7,4S10.9,30.5,10.9,36.5z"/>
	<path class="st6" d="M51.7,32c4.3,0,7.7,1.1,10.2,3.2s3.7,5.1,3.7,8.8c0,4.2-1.3,7.6-4,10c-2.7,2.4-6.4,3.6-11.2,3.6
		c-4.6,0-8.1-0.7-10.5-2.2v-4.5c1.3,0.8,2.9,1.5,4.9,2c1.9,0.5,3.9,0.7,5.7,0.7c3.3,0,5.8-0.8,7.7-2.3c1.8-1.5,2.7-3.8,2.7-6.7
		c0-5.7-3.5-8.6-10.5-8.6c-1.8,0-4.1,0.3-7.1,0.8l-2.4-1.5l1.5-19.1h20.3v4.3H46.3l-1,12.3C47.5,32.2,49.6,32,51.7,32z"/>
</g>
</svg>
